<svg xmlns="http://www.w3.org/2000/svg" width="128.936" height="42.04" viewBox="0 0 128.936 42.04">
  <g id="Group_6607" data-name="Group 6607" transform="translate(-265.983 -410.107)">
    <path id="Path_14429" data-name="Path 14429" d="M283.159,427.366a1.53,1.53,0,0,0,1.029-.351,1.278,1.278,0,0,0,.412-1.02v-8.829a1.231,1.231,0,0,0-.412-1,1.537,1.537,0,0,0-1.029-.345,1.494,1.494,0,0,0-1.018.345,1.243,1.243,0,0,0-.4,1v8.829a1.292,1.292,0,0,0,.4,1.02A1.487,1.487,0,0,0,283.159,427.366Z" transform="translate(17.392 6.302)" fill="#4b9ce2"/>
    <path id="Path_14430" data-name="Path 14430" d="M283.3,416.446a1.741,1.741,0,0,0,1.235-.425,1.434,1.434,0,0,0,.456-1.107,1.4,1.4,0,0,0-.467-1.1,2.048,2.048,0,0,0-2.459,0,1.41,1.41,0,0,0-.459,1.1,1.436,1.436,0,0,0,.459,1.107A1.738,1.738,0,0,0,283.3,416.446Z" transform="translate(17.247 3.639)" fill="#4b9ce2"/>
    <path id="Path_14431" data-name="Path 14431" d="M286.084,429.9a1.441,1.441,0,0,0,1.088-.41,1.477,1.477,0,0,0,.4-1.075v-6.174l7.618,7.136a1.465,1.465,0,0,0,1.052.48,1.3,1.3,0,0,0,.949-.4,1.273,1.273,0,0,0,.4-.928,1.321,1.321,0,0,0-.457-.982l-6.54-6.084,6.151-5.625a1.3,1.3,0,0,0,.457-.961,1.367,1.367,0,0,0-1.325-1.328,1.29,1.29,0,0,0-.938.412l-7.365,6.909v-5.88a1.431,1.431,0,0,0-.4-1.062,1.46,1.46,0,0,0-1.088-.4,1.375,1.375,0,0,0-1.462,1.462v13.426a1.477,1.477,0,0,0,.4,1.075A1.408,1.408,0,0,0,286.084,429.9Z" transform="translate(20.572 3.771)" fill="#4b9ce2"/>
    <path id="Path_14432" data-name="Path 14432" d="M293.238,416.446a1.743,1.743,0,0,0,1.237-.425,1.442,1.442,0,0,0,.456-1.107,1.4,1.4,0,0,0-.469-1.1,2.048,2.048,0,0,0-2.459,0,1.409,1.409,0,0,0-.457,1.1,1.434,1.434,0,0,0,.457,1.107A1.741,1.741,0,0,0,293.238,416.446Z" transform="translate(28.215 3.639)" fill="#4b9ce2"/>
    <path id="Path_14433" data-name="Path 14433" d="M293.095,415.817a1.492,1.492,0,0,0-1.016.345,1.245,1.245,0,0,0-.4,1v8.829a1.293,1.293,0,0,0,.4,1.02,1.485,1.485,0,0,0,1.016.351,1.539,1.539,0,0,0,1.031-.351,1.277,1.277,0,0,0,.41-1.02v-8.829a1.23,1.23,0,0,0-.41-1A1.546,1.546,0,0,0,293.095,415.817Z" transform="translate(28.359 6.302)" fill="#4b9ce2"/>
    <path id="Path_14434" data-name="Path 14434" d="M306.772,429.9a1.317,1.317,0,0,0,1.008-.41,1.506,1.506,0,0,0,.389-1.075V414.986a1.488,1.488,0,0,0-.379-1.062,1.325,1.325,0,0,0-1.018-.4,1.3,1.3,0,0,0-1,.4,1.487,1.487,0,0,0-.377,1.062v9.881l-8.327-10.819a1.286,1.286,0,0,0-1.1-.524,1.364,1.364,0,0,0-1.029.4,1.458,1.458,0,0,0-.389,1.062v13.426a1.57,1.57,0,0,0,.366,1.075,1.44,1.44,0,0,0,2.013,0,1.56,1.56,0,0,0,.366-1.075v-9.9l8.348,10.864A1.311,1.311,0,0,0,306.772,429.9Z" transform="translate(31.538 3.771)" fill="#4b9ce2"/>
    <path id="Path_14435" data-name="Path 14435" d="M315.753,427.787a1.529,1.529,0,0,0,.114-.608,1.314,1.314,0,0,0-.276-.846.822.822,0,0,0-.663-.343,1.273,1.273,0,0,0-.48.093,2.99,2.99,0,0,0-.459.227,8.784,8.784,0,0,1-1.885,1.008,5.4,5.4,0,0,1-1.818.3,4.4,4.4,0,0,1-3.6-1.487,8.446,8.446,0,0,1,0-8.76,4.4,4.4,0,0,1,3.6-1.485,5.8,5.8,0,0,1,1.874.286,6.668,6.668,0,0,1,1.828,1.018,1.706,1.706,0,0,0,.938.318.822.822,0,0,0,.663-.343,1.305,1.305,0,0,0,.276-.846,1.487,1.487,0,0,0-.114-.616,1.305,1.305,0,0,0-.412-.482,7.37,7.37,0,0,0-2.356-1.292,8.793,8.793,0,0,0-2.836-.446,8.066,8.066,0,0,0-4.083,1.006,6.726,6.726,0,0,0-2.686,2.869,10.722,10.722,0,0,0,0,8.773,6.7,6.7,0,0,0,2.686,2.882,8.044,8.044,0,0,0,4.083,1.006,8.793,8.793,0,0,0,2.836-.446,7.328,7.328,0,0,0,2.356-1.292A1.292,1.292,0,0,0,315.753,427.787Z" transform="translate(40.239 3.722)" fill="#4b9ce2"/>
    <path id="Path_14436" data-name="Path 14436" d="M311.495,416.446a1.741,1.741,0,0,0,1.235-.425,1.434,1.434,0,0,0,.457-1.107,1.391,1.391,0,0,0-.469-1.1,2.048,2.048,0,0,0-2.459,0,1.416,1.416,0,0,0-.456,1.1,1.442,1.442,0,0,0,.456,1.107A1.747,1.747,0,0,0,311.495,416.446Z" transform="translate(48.362 3.639)" fill="#4b9ce2"/>
    <path id="Path_14437" data-name="Path 14437" d="M311.351,415.817a1.488,1.488,0,0,0-1.016.345,1.239,1.239,0,0,0-.4,1v8.829a1.287,1.287,0,0,0,.4,1.02,1.482,1.482,0,0,0,1.016.351,1.533,1.533,0,0,0,1.029-.351,1.27,1.27,0,0,0,.41-1.02v-8.829a1.224,1.224,0,0,0-.41-1A1.54,1.54,0,0,0,311.351,415.817Z" transform="translate(48.506 6.302)" fill="#4b9ce2"/>
    <path id="Path_14438" data-name="Path 14438" d="M317.177,429.7h8.259a1.579,1.579,0,0,0,1.027-.3,1.026,1.026,0,0,0,.366-.846,1.081,1.081,0,0,0-.366-.879,1.546,1.546,0,0,0-1.027-.309h-6.8v-4.712h6.336a1.593,1.593,0,0,0,1.029-.3,1.032,1.032,0,0,0,.364-.848,1.058,1.058,0,0,0-.364-.869,1.593,1.593,0,0,0-1.029-.3h-6.336v-4.439h6.8a1.545,1.545,0,0,0,1.027-.307,1.086,1.086,0,0,0,.366-.879,1.03,1.03,0,0,0-.366-.848,1.591,1.591,0,0,0-1.027-.3h-8.259a1.43,1.43,0,0,0-1.039.366,1.362,1.362,0,0,0-.379,1.027v13.336a1.361,1.361,0,0,0,.379,1.029A1.431,1.431,0,0,0,317.177,429.7Z" transform="translate(54.938 3.831)" fill="#4b9ce2"/>
    <path id="Path_14439" data-name="Path 14439" d="M323.559,429.763h7.982c.915,0,1.374-.406,1.374-1.214s-.459-1.21-1.374-1.21h-6.427V414.986a1.439,1.439,0,0,0-.4-1.062,1.46,1.46,0,0,0-1.088-.4,1.378,1.378,0,0,0-1.464,1.462v13.4a1.354,1.354,0,0,0,.368,1A1.389,1.389,0,0,0,323.559,429.763Z" transform="translate(62.005 3.771)" fill="#4b9ce2"/>
    <path id="Path_14440" data-name="Path 14440" d="M292.571,426.143c-.011-.215-.021-.421-.021-.5v-3.757a3.844,3.844,0,0,0-3.822-3.827,3.77,3.77,0,0,0-2.028.585,3.778,3.778,0,0,0-2.829-1.283h-.013a3.641,3.641,0,0,0-1.3.24l-.149-3.858a3.786,3.786,0,0,0-1.237-2.638,3.742,3.742,0,0,0-2.741-.991,3.818,3.818,0,0,0-3.633,3.738v.72a3.834,3.834,0,0,0-7.243,2.377l1.847,8.764-.069.023a4.57,4.57,0,0,0-2.743,3.656l-.524,4.367a10.907,10.907,0,0,0,3.77,9.673l2.3,1.98v5.354a1.382,1.382,0,1,0,2.764,0v-6.027a1.339,1.339,0,0,0-.5-1.067l-2.745-2.367a8.153,8.153,0,0,1-2.783-7.188l.522-4.363a1.8,1.8,0,0,1,1.767-1.557l5.169,0a.9.9,0,0,1,.7.32,1,1,0,0,1,.309.7,1.021,1.021,0,0,1-.989,1.022l-2.979.088a1.447,1.447,0,0,0-1.357,1.245l-.265,2.331a1.414,1.414,0,0,0,1.309,1.506,1.439,1.439,0,0,0,1.494-1.216l.116-1a5.562,5.562,0,0,1,3.2,5.308,1.479,1.479,0,0,0,1.222,1.532l.168.006a1.417,1.417,0,0,0,1.372-1.262,8.221,8.221,0,0,0-2.285-6.315,3.87,3.87,0,0,0,1.811-3.246,3.77,3.77,0,0,0-2.583-3.587V413.9a1.038,1.038,0,0,1,1.022-1.024h0a1.014,1.014,0,0,1,1.014.949l.438,12.521a3.842,3.842,0,0,0,3.827,3.827,3.78,3.78,0,0,0,2.838-1.29,3.968,3.968,0,0,0,2.026.591,4.054,4.054,0,0,0,1.277-.234,47.548,47.548,0,0,1-.044,7.283c-.236,2.428-1.016,6.538-3.589,6.787a1.376,1.376,0,0,0-1.26,1.38v6.025a1.383,1.383,0,0,0,2.766,0v-4.885c2.7-.93,4.323-3.959,4.834-9.01a50.278,50.278,0,0,0-.128-10.064C292.592,426.627,292.582,426.381,292.571,426.143Zm-3.8.509a1.019,1.019,0,0,1-1.02-1.018v-3.747a1.02,1.02,0,1,1,2.041,0v3.747A1.019,1.019,0,0,1,288.768,426.652Zm-3.873-5.463v5.152a1.02,1.02,0,0,1-2.041,0v-5.152a1.02,1.02,0,1,1,2.041,0Zm-10.247,4.077h-2.417l-1.877-8.926a1.014,1.014,0,0,1,.147-.766,1.033,1.033,0,0,1,.669-.442.969.969,0,0,1,1.159.7Z" transform="translate(0 0)" fill="#4b9ce2"/>
    <path id="Path_14441" data-name="Path 14441" d="M286.684,423.923h-3.852a.978.978,0,0,0-.713.252.932.932,0,0,0-.259.7v9.162a1,1,0,0,0,.273.743.977.977,0,0,0,.728.274.944.944,0,0,0,1.018-1.016v-3.368h2.8a3.969,3.969,0,0,0,2.756-.89,3.192,3.192,0,0,0,.987-2.493,3.155,3.155,0,0,0-.987-2.48A3.988,3.988,0,0,0,286.684,423.923Zm-.25,5.2H283.88V425.49h2.554q2.083,0,2.083,1.815T286.434,429.121Z" transform="translate(17.523 15.249)" fill="#898989"/>
    <path id="Path_14442" data-name="Path 14442" d="M294.18,431.517a3.506,3.506,0,0,0-.673-.783,1.989,1.989,0,0,0-.8-.391,3.442,3.442,0,0,0,2.06-1.056,3.053,3.053,0,0,0,.728-2.106,3.007,3.007,0,0,0-.978-2.419,4.278,4.278,0,0,0-2.859-.839h-3.913a.978.978,0,0,0-.713.252.932.932,0,0,0-.259.7v9.162a1,1,0,0,0,.273.743.977.977,0,0,0,.728.274.95.95,0,0,0,.722-.274,1.018,1.018,0,0,0,.265-.743v-3.509H290.3a1.833,1.833,0,0,1,.917.2,2.06,2.06,0,0,1,.665.7l2.083,3.164a1.008,1.008,0,0,0,.86.469,1.055,1.055,0,0,0,.682-.233.736.736,0,0,0,.29-.6.971.971,0,0,0-.189-.547Zm-2.8-2.537h-2.632v-3.49h2.632a2.719,2.719,0,0,1,1.675.414,1.57,1.57,0,0,1,.532,1.323,1.6,1.6,0,0,1-.532,1.323A2.644,2.644,0,0,1,291.378,428.98Z" transform="translate(22.946 15.249)" fill="#898989"/>
    <path id="Path_14443" data-name="Path 14443" d="M299.8,424.545a5.453,5.453,0,0,0-2.794-.688,5.508,5.508,0,0,0-2.8.688,4.556,4.556,0,0,0-1.824,1.965,7.388,7.388,0,0,0,.008,6,4.6,4.6,0,0,0,1.824,1.975,5.991,5.991,0,0,0,5.575,0,4.611,4.611,0,0,0,1.824-1.975,7.366,7.366,0,0,0,.008-6A4.568,4.568,0,0,0,299.8,424.545Zm-.421,7.969a3.226,3.226,0,0,1-4.763,0,5.715,5.715,0,0,1,0-6,3.244,3.244,0,0,1,4.763,0,5.715,5.715,0,0,1,0,6Z" transform="translate(28.435 15.176)" fill="#898989"/>
    <path id="Path_14444" data-name="Path 14444" d="M300.41,423.886a.944.944,0,0,0-1,1v7a1.687,1.687,0,0,1-.328,1.142,1.3,1.3,0,0,1-.97.408l-.5.03a.962.962,0,0,0-.621.229.777.777,0,0,0-.2.57c0,.585.4.862,1.208.829l.5-.03a2.831,2.831,0,0,0,2.928-3.179v-7a.978.978,0,0,0-.276-.728A1,1,0,0,0,300.41,423.886Z" transform="translate(34.004 15.208)" fill="#898989"/>
    <path id="Path_14445" data-name="Path 14445" d="M306.752,425.52a1.059,1.059,0,0,0,.7-.21.745.745,0,0,0,.25-.6.707.707,0,0,0-.25-.581,1.082,1.082,0,0,0-.7-.2H301.1a.978.978,0,0,0-.713.252.932.932,0,0,0-.259.7v9.13a.934.934,0,0,0,.259.7.986.986,0,0,0,.713.25h5.653a1.082,1.082,0,0,0,.7-.2.7.7,0,0,0,.25-.579.742.742,0,0,0-.25-.6,1.06,1.06,0,0,0-.7-.212H302.1v-3.227h4.338a1.1,1.1,0,0,0,.707-.2.709.709,0,0,0,.248-.581.728.728,0,0,0-.248-.6,1.1,1.1,0,0,0-.707-.2H302.1v-3.04Z" transform="translate(37.685 15.249)" fill="#898989"/>
    <path id="Path_14446" data-name="Path 14446" d="M309.7,425.5a3.98,3.98,0,0,1,1.283.2,4.564,4.564,0,0,1,1.254.7,1.16,1.16,0,0,0,.642.217.568.568,0,0,0,.454-.234.907.907,0,0,0,.187-.581,1.02,1.02,0,0,0-.078-.423.907.907,0,0,0-.282-.328,5.046,5.046,0,0,0-1.611-.886,6.11,6.11,0,0,0-1.944-.3,5.507,5.507,0,0,0-2.794.688,4.593,4.593,0,0,0-1.841,1.965,7.344,7.344,0,0,0,0,6,4.585,4.585,0,0,0,1.841,1.975,5.507,5.507,0,0,0,2.794.688,6.049,6.049,0,0,0,1.944-.305,5.045,5.045,0,0,0,1.611-.886.875.875,0,0,0,.282-.334,1.037,1.037,0,0,0,.078-.417.9.9,0,0,0-.187-.579.564.564,0,0,0-.454-.236.86.86,0,0,0-.328.063,2.167,2.167,0,0,0-.313.156,6.05,6.05,0,0,1-1.292.69,3.675,3.675,0,0,1-1.245.2,3.005,3.005,0,0,1-2.466-1.02,5.789,5.789,0,0,1,0-6A3.009,3.009,0,0,1,309.7,425.5Z" transform="translate(42.327 15.176)" fill="#898989"/>
    <path id="Path_14447" data-name="Path 14447" d="M317.563,423.923h-7.721q-.937,0-.938.831t.938.829h2.85v8.457a.987.987,0,0,0,.273.728,1,1,0,0,0,.743.273.941.941,0,0,0,1-1v-8.457h2.851q.94,0,.94-.829T317.563,423.923Z" transform="translate(47.372 15.249)" fill="#898989"/>
  </g>
</svg>
